<svg width="12" height="14" viewBox="0 0 12 14" fill="none" xmlns="http://www.w3.org/2000/svg">
<path d="M1.99999 13.6663C1.63332 13.6663 1.31932 13.5357 1.05799 13.2743C0.796658 13.013 0.666213 12.6992 0.666658 12.333V1.66634C0.666658 1.29968 0.797324 0.985676 1.05866 0.724342C1.31999 0.463009 1.63377 0.332564 1.99999 0.333009H7.44999C7.62777 0.333009 7.79732 0.366342 7.95866 0.433009C8.11999 0.499676 8.26155 0.59412 8.38332 0.716342L10.95 3.28301C11.0722 3.40523 11.1667 3.54701 11.2333 3.70834C11.3 3.86968 11.3333 4.03901 11.3333 4.21634V12.333C11.3333 12.6997 11.2027 13.0137 10.9413 13.275C10.68 13.5363 10.3662 13.6668 9.99999 13.6663H1.99999ZM1.99999 12.333H9.99999V4.33301H7.99999C7.8111 4.33301 7.65266 4.26901 7.52466 4.14101C7.39666 4.01301 7.33288 3.85479 7.33332 3.66634V1.66634H1.99999V12.333ZM5.99999 11.6663C6.74444 11.6663 7.3751 11.4052 7.89199 10.883C8.40888 10.3608 8.6671 9.73301 8.66666 8.99968V6.99968C8.66666 6.81079 8.60266 6.65234 8.47466 6.52434C8.34666 6.39634 8.18844 6.33256 7.99999 6.33301C7.8111 6.33301 7.65266 6.39701 7.52466 6.52501C7.39666 6.65301 7.33288 6.81123 7.33332 6.99968V8.99968C7.33332 9.36634 7.20555 9.68034 6.94999 9.94168C6.69444 10.203 6.37777 10.3335 5.99999 10.333C5.63332 10.333 5.31932 10.2023 5.05799 9.94101C4.79666 9.67968 4.66621 9.3659 4.66666 8.99968V5.33301C4.66666 5.23301 4.69999 5.15234 4.76666 5.09101C4.83332 5.02968 4.9111 4.99923 4.99999 4.99968C5.09999 4.99968 5.18066 5.03034 5.24199 5.09168C5.30332 5.15301 5.33377 5.23345 5.33332 5.33301V8.33301C5.33332 8.5219 5.39732 8.68034 5.52532 8.80834C5.65332 8.93634 5.81155 9.00012 5.99999 8.99968C6.18888 8.99968 6.34732 8.93568 6.47532 8.80768C6.60332 8.67968 6.6671 8.52145 6.66666 8.33301V5.33301C6.66666 4.86634 6.50555 4.4719 6.18332 4.14968C5.8611 3.82745 5.46666 3.66634 4.99999 3.66634C4.53332 3.66634 4.13888 3.82745 3.81666 4.14968C3.49444 4.4719 3.33332 4.86634 3.33332 5.33301V8.99968C3.33332 9.73301 3.59444 10.3608 4.11666 10.883C4.63888 11.4052 5.26666 11.6663 5.99999 11.6663Z" fill="#252525" fill-opacity="0.6"/>
</svg>
